<svg xmlns="http://www.w3.org/2000/svg" viewBox="0 0 53 41.19"><defs><style>.cls-1{fill:#1ae5da;}</style></defs><title>通行车辆</title><g id="图层_2" data-name="图层 2"><g id="重大活动立体化指挥安保平台-一级防护盾"><path class="cls-1" d="M36.91,11.75c2,.37,4.07.67,6,1.15a4.14,4.14,0,0,1,3,2.59q1.25,3.2,2.61,6.33c.17.36.66.88.94.84a3,3,0,0,1,3.47,2.19,2.34,2.34,0,0,1,.07.45.82.82,0,0,1-.63.84l-1,.26a.82.82,0,0,0-.61.92c.07.49.12,1,.16,1.46V39.11a2.85,2.85,0,0,1-.47,1.41.82.82,0,0,1-.55.35,20.59,20.59,0,0,1-6,.08,1,1,0,0,1-.37-.14c-1-.69-.67-1.68-.71-2.62A.82.82,0,0,0,42,37.4H23.43a.82.82,0,0,0-.8.63c-.08.35-.16.73-.23,1.09a2.55,2.55,0,0,1-2.28,2A21.29,21.29,0,0,1,15.4,41a.82.82,0,0,1-.58-.37,3.19,3.19,0,0,1-.5-1.65c-.12-1.49-.12-2.9-.12-4.35,0-2.47,0-4.95.1-7.43a.83.83,0,0,0-.63-.83l-.91-.22a.81.81,0,0,1-.62-.93v0a1.09,1.09,0,0,1,0-.17c.61-1.45,1.43-2.56,3.5-2.4.24,0,.71-.44.85-.78a46.26,46.26,0,0,0,2-5.07,6.8,6.8,0,0,1,6.08-4.59h.07c1.1-.18,2.24-.31,3.33-.47h.08A65.13,65.13,0,0,1,36.91,11.75ZM19.15,23.23a70.21,70.21,0,0,0,25.69.18.82.82,0,0,0,.63-1.1c-.63-1.69-1.25-3.26-1.7-4.84A3.32,3.32,0,0,0,40.39,15c-4.22-.17-8.46-.3-12.68-.33a20,20,0,0,0-4.07.57,2.38,2.38,0,0,0-1.45.87.54.54,0,0,0-.07.13c-1.13,2.23-2,4.53-3,7ZM20.89,32a11.34,11.34,0,0,0,2.18-.11,2.09,2.09,0,0,0,1-.5.82.82,0,0,0,.1-1.09,1.5,1.5,0,0,0-.53-.46A51.83,51.83,0,0,0,18.52,28c-.85-.26-1.83-.2-2,.89-.4,1.62,0,2.51,1.33,2.77A31.1,31.1,0,0,0,21,32Zm23.49,0c1.08-.07,2.15-.2,3.21-.37,1.52-.32,1.2-1.45,1.16-2.44S48.14,27.75,47.3,28a48.49,48.49,0,0,0-6.11,2.12c-.89.39-.58,1.45.41,1.67h.07c.9.12,1.81.19,2.71.22ZM17,15.15a6.81,6.81,0,0,1,6.09-4.59h.06c1.1-.18,2.24-.31,3.33-.47h.08c.23,0,1.45-.07,3-.1v0a2,2,0,0,0-.06-.32A2.17,2.17,0,0,0,27,8c-.21,0-.56-.35-.68-.6-.66-1.52-1.29-3-1.89-4.59A3,3,0,0,0,22.26,1C20.87.63,19.4.41,17.93.14A46.76,46.76,0,0,0,11.58.09h-.05c-.8.12-1.62.21-2.41.34h0a4.92,4.92,0,0,0-4.4,3.32A34.24,34.24,0,0,1,3.2,7.43c-.11.24-.44.56-.62.56A2.3,2.3,0,0,0,.05,9.73a.56.56,0,0,0,0,.12v0a.59.59,0,0,0,.45.66l.65.16a.6.6,0,0,1,.46.6c-.07,1.8-.07,3.59-.07,5.38,0,1.05,0,2.07.09,3.14A2.31,2.31,0,0,0,2,21a.64.64,0,0,0,.42.27,15.64,15.64,0,0,0,3.42.1,1.85,1.85,0,0,0,1.64-1.45c.05-.26.11-.53.17-.79a.6.6,0,0,1,.58-.46h7.48C16.16,17.53,16.63,16.35,17,15.15Zm-12-6.7C5.8,6.67,6.41,5,7.23,3.39a.41.41,0,0,1,0-.09,1.69,1.69,0,0,1,1-.63,14.57,14.57,0,0,1,2.95-.42c3.05,0,6.11.12,9.17.25a2.39,2.39,0,0,1,2.44,1.78c.33,1.14.77,2.28,1.23,3.5a.6.6,0,0,1-.45.8A51,51,0,0,1,5.08,8.45Zm3.55,5.91a1.6,1.6,0,0,1-.71.36,8.37,8.37,0,0,1-1.58.08l.07,0c-.82-.07-1.55-.09-2.3-.23-1-.19-1.25-.83-1-2,.15-.8.86-.84,1.48-.65a34.48,34.48,0,0,1,3.68,1.35.92.92,0,0,1,.39.33A.6.6,0,0,1,8.63,14.36Z"/></g></g></svg>