<svg xmlns="http://www.w3.org/2000/svg" viewBox="0 0 57.13 58"><defs><style>.cls-1{fill:#29abe2;}</style></defs><title>过站车辆</title><g id="图层_2" data-name="图层 2"><g id="重大活动立体化指挥安保平台-一级防护盾"><path class="cls-1" d="M39.78,26.26c2.2.4,4.4.72,6.46,1.24a4.45,4.45,0,0,1,3.25,2.79c.9,2.3,1.83,4.57,2.81,6.83.18.38.71.94,1,.9a3.23,3.23,0,0,1,3.73,2.37,2.53,2.53,0,0,1,.08.48.9.9,0,0,1-.67.91l-1.12.27a.89.89,0,0,0-.66,1c.08.52.14,1.05.17,1.57V55.75a2.93,2.93,0,0,1-.5,1.52.87.87,0,0,1-.6.38,22.69,22.69,0,0,1-6.48.09.87.87,0,0,1-.4-.16c-1-.74-.72-1.8-.77-2.82a.88.88,0,0,0-.89-.85H25.26a.88.88,0,0,0-.86.68c-.09.38-.18.79-.26,1.18a2.71,2.71,0,0,1-2.45,2.15,22.83,22.83,0,0,1-5.09-.15.88.88,0,0,1-.62-.4,3.41,3.41,0,0,1-.54-1.78c-.13-1.6-.13-3.12-.13-4.69,0-2.66,0-5.33.1-8a.88.88,0,0,0-.68-.89l-1-.24a.87.87,0,0,1-.67-1v0a1.21,1.21,0,0,1,.05-.18C13.8,39,14.69,37.78,16.91,38c.27,0,.77-.48.92-.84A50.77,50.77,0,0,0,20,31.65a7.34,7.34,0,0,1,6.56-4.94h.07c1.18-.2,2.41-.34,3.59-.51h.08A70.09,70.09,0,0,1,39.78,26.26ZM20.65,38.64a76,76,0,0,0,27.69.2A.89.89,0,0,0,49,37.65c-.68-1.83-1.34-3.52-1.82-5.22a3.6,3.6,0,0,0-3.65-2.66c-4.55-.18-9.12-.32-13.67-.36a21,21,0,0,0-4.39.62,2.53,2.53,0,0,0-1.56.94.57.57,0,0,0-.08.13c-1.21,2.4-2.13,4.89-3.19,7.54Zm1.86,9.46A11.64,11.64,0,0,0,24.87,48a2.2,2.2,0,0,0,1.05-.54A.89.89,0,0,0,26,46.26a1.63,1.63,0,0,0-.57-.49,57.21,57.21,0,0,0-5.49-2c-.93-.28-2-.22-2.2,1-.44,1.75,0,2.71,1.43,3,1.12.2,2.19.24,3.42.34Zm25.33,0c1.16-.08,2.31-.21,3.45-.4,1.65-.34,1.3-1.57,1.26-2.63s-.66-1.56-1.56-1.32A51.46,51.46,0,0,0,44.39,46c-1,.42-.62,1.56.45,1.8h.08a28.49,28.49,0,0,0,2.92.24ZM18.36,29.92A7.34,7.34,0,0,1,24.92,25H25c1.18-.2,2.41-.33,3.59-.51h.08c.25,0,1.56-.08,3.21-.11v0a1.35,1.35,0,0,0-.06-.35,2.33,2.33,0,0,0-2.7-1.71c-.22,0-.6-.38-.73-.66-.71-1.63-1.39-3.27-2-4.94a3.23,3.23,0,0,0-2.35-2c-1.5-.38-3.09-.61-4.68-.9a50.89,50.89,0,0,0-6.83-.06h-.06c-.86.12-1.75.22-2.6.36H9.78A5.29,5.29,0,0,0,5,17.65a38.77,38.77,0,0,1-1.59,4c-.11.27-.48.61-.67.61A2.49,2.49,0,0,0,.05,24.09a.5.5,0,0,0,0,.13v0A.63.63,0,0,0,.49,25l.71.17a.65.65,0,0,1,.49.65c-.07,1.94-.07,3.87-.07,5.79,0,1.13,0,2.24.09,3.4a2.53,2.53,0,0,0,.39,1.28.62.62,0,0,0,.45.29,16.27,16.27,0,0,0,3.69.11A2,2,0,0,0,8,35.09l.18-.85a.64.64,0,0,1,.63-.49h8.06C17.42,32.49,17.93,31.22,18.36,29.92ZM5.48,22.71c.77-1.93,1.43-3.72,2.31-5.46l.06-.1A1.88,1.88,0,0,1,9,16.47,14.77,14.77,0,0,1,12.16,16c3.28,0,6.59.13,9.88.26a2.59,2.59,0,0,1,2.64,1.92C25,19.44,25.51,20.66,26,22a.64.64,0,0,1-.49.86,55,55,0,0,1-20-.14ZM9.3,29.07a1.62,1.62,0,0,1-.77.39,8.77,8.77,0,0,1-1.7.09l.08,0c-.89-.08-1.67-.1-2.48-.25-1-.2-1.35-.9-1-2.16.16-.85.92-.9,1.59-.69a40,40,0,0,1,4,1.44,1.06,1.06,0,0,1,.41.36A.63.63,0,0,1,9.3,29.07Zm41-18.42a2.4,2.4,0,0,0-2.77-1.76c-.23,0-.62-.39-.75-.67C46,6.54,45.32,4.85,44.65,3.15a3.3,3.3,0,0,0-2.41-2.07C40.7.69,39.07.46,37.44.16a50.34,50.34,0,0,0-7-.06h-.06c-.88.13-1.79.24-2.67.38h-.05a5.44,5.44,0,0,0-4.87,3.67,37.38,37.38,0,0,1-1.63,4.06c-.11.27-.49.63-.68.63-1.66-.14-2.31.75-2.8,1.92a.5.5,0,0,0,0,.13v0c-.05.34.25,1,.58,1.08l.93.32c.31.07,3,.63,3.71.84a33.09,33.09,0,0,1,3.78,1.18,3.44,3.44,0,0,1,.86,1.26c.09.32,1.69,4.33,1.87,5.08H41.48a.65.65,0,0,1,.65.63c0,.75-.19,1.55.58,2.1a.61.61,0,0,0,.29.11,16.93,16.93,0,0,0,4.82-.06.66.66,0,0,0,.44-.28,2.3,2.3,0,0,0,.37-1.13V13.79c0-.39-.07-.78-.12-1.17a.66.66,0,0,1,.49-.74l.82-.2a.66.66,0,0,0,.5-.68A1,1,0,0,0,50.26,10.65Zm-27-1.3h0c.79-2,1.47-3.82,2.37-5.6a.61.61,0,0,1,.07-.1A1.88,1.88,0,0,1,26.82,3a16.31,16.31,0,0,1,3.26-.46c3.38,0,6.77.14,10.15.27a2.67,2.67,0,0,1,2.71,2c.36,1.26.85,2.51,1.36,3.87a.66.66,0,0,1-.51.88A56.17,56.17,0,0,1,23.23,9.35ZM46,16.08a24.45,24.45,0,0,1-2.56.29h0a19.82,19.82,0,0,1-2.18-.18h0c-.8-.17-1-1-.33-1.33a38.21,38.21,0,0,1,4.89-1.7c.67-.17,1.13.2,1.16,1S47.21,15.82,46,16.08Z"/></g></g></svg>