<svg xmlns="http://www.w3.org/2000/svg" viewBox="0 0 42.87 30.8"><defs><style>.cls-1{fill:#18e89c;}</style></defs><title>可疑车辆</title><g id="图层_2" data-name="图层 2"><g id="重大活动立体化指挥安保平台-一级防护盾"><path class="cls-1" d="M27.93,23.46A7.6,7.6,0,0,1,29,19.61a.76.76,0,0,1,.52-.79h0a7.59,7.59,0,0,1,9.75-2c0-.27,0-.54-.09-.82a.84.84,0,0,1,.63-.93l1-.26a.85.85,0,0,0,.64-.86,2.36,2.36,0,0,0-.08-.45,3,3,0,0,0-3.51-2.23c-.29,0-.79-.49-1-.85Q35.56,7.24,34.3,4a4.21,4.21,0,0,0-3.06-2.62C29.29.88,27.22.58,25.15.2A65.21,65.21,0,0,0,16.26.12h-.08c-1.12.17-2.27.3-3.39.48h-.06A6.91,6.91,0,0,0,6.55,5.27a46.84,46.84,0,0,1-2.06,5.15c-.15.34-.62.8-.87.8-2.1-.17-2.93,1-3.55,2.43a1.09,1.09,0,0,0,0,.17v0a.85.85,0,0,0,.63.94l.92.22a.82.82,0,0,1,.64.84c-.09,2.52-.09,5-.09,7.54,0,1.47,0,2.91.12,4.42a3.21,3.21,0,0,0,.51,1.67.83.83,0,0,0,.58.38,21.41,21.41,0,0,0,4.8.14,2.56,2.56,0,0,0,2.3-2c.08-.36.16-.75.25-1.1a.83.83,0,0,1,.81-.65h17A7.5,7.5,0,0,1,27.93,23.46ZM12.1,20.14a2,2,0,0,1-1,.51,11,11,0,0,1-2.22.11l.11,0a31.83,31.83,0,0,1-3.23-.32C4.42,20.14,4,19.23,4.42,17.59c.21-1.11,1.21-1.17,2.07-.9a50,50,0,0,1,5.18,1.88,1.5,1.5,0,0,1,.53.46A.82.82,0,0,1,12.1,20.14Zm-5-8.28h0c1-2.5,1.87-4.84,3-7.1a.57.57,0,0,1,.08-.13,2.33,2.33,0,0,1,1.47-.88,19.87,19.87,0,0,1,4.13-.59c4.29,0,8.59.17,12.87.34A3.37,3.37,0,0,1,32.12,6c.46,1.6,1.08,3.19,1.73,4.91A.85.85,0,0,1,33.21,12,71.45,71.45,0,0,1,7.13,11.86Zm28.93,5.32A6.81,6.81,0,1,1,29.25,24a6.81,6.81,0,0,1,6.81-6.81Zm-.73,7.63h1.13c-.27-1.54,1.87-1.86,1.87-3.42a1.83,1.83,0,0,0-2.06-1.85A3,3,0,0,0,34,20.63l.69.69c.51-.56.61-.77,1.2-.77.86,0,1.26.26,1.26.93C37.13,22.63,35,23.1,35.33,24.81Zm-.09,1.7a.82.82,0,0,0,1.64,0,.82.82,0,0,0-1.64,0Z"/></g></g></svg>