<svg xmlns="http://www.w3.org/2000/svg" viewBox="0 0 32.99 58.08"><defs><style>.cls-1{fill:#ed1c24;}</style></defs><title>可疑人员</title><g id="图层_2" data-name="图层 2"><g id="重大活动立体化指挥安保平台-一级防护盾"><path class="cls-1" d="M4.45,7.78A7.64,7.64,0,0,1,11.94,0a7.65,7.65,0,0,1,7.49,7.78,7.64,7.64,0,0,1-7.49,7.78A7.63,7.63,0,0,1,4.45,7.78Zm6,40.15c0-6.53,4.69-11.89,11.33-12a.89.89,0,0,0,.86-.8l1.25-13a3.45,3.45,0,0,0-3.38-3.52H3.39A3.45,3.45,0,0,0,0,22.06L1.27,36.65l0,.44a2.23,2.23,0,0,0,2.16,1.85h.85a1.48,1.48,0,0,1,1.35,1.3.71.71,0,0,1,0,.2l1.18,15.3,0,.34A2.23,2.23,0,0,0,9.05,58h5.84a.68.68,0,0,0,.25-1.23A10.86,10.86,0,0,1,10.43,47.93Zm12.19-10.6A10.38,10.38,0,1,1,12.24,47.71,10.37,10.37,0,0,1,22.62,37.33ZM21.36,49.81h1.72c-.42-2.33,2.84-2.83,2.84-5.2,0-1.73-1.22-2.83-3.13-2.83a4.62,4.62,0,0,0-3.48,1.67l1.05,1c.77-.85.92-1.17,1.81-1.17,1.32,0,1.92.39,1.92,1.41C24.09,46.5,20.88,47.21,21.36,49.81Zm-.14,2.6a1.21,1.21,0,0,0,1.26,1.22,1.22,1.22,0,1,0,0-2.43A1.2,1.2,0,0,0,21.22,52.41Z"/></g></g></svg>