<svg xmlns="http://www.w3.org/2000/svg" xmlns:xlink="http://www.w3.org/1999/xlink" viewBox="0 0 3838.03 86"><defs><style>.cls-1,.cls-4{fill:#8e034c;}.cls-1{opacity:0.25;}.cls-2{fill:none;stroke:#8e034c;stroke-miterlimit:10;stroke-width:2px;}.cls-3{fill:url(#未命名的渐变_21);}</style><linearGradient id="未命名的渐变_21" x1="1497.39" y1="42.98" x2="2317.39" y2="42.98" gradientUnits="userSpaceOnUse"><stop offset="0" stop-color="#8e034c" stop-opacity="0.2"/><stop offset="0.5" stop-color="#8e034c" stop-opacity="0.3"/><stop offset="1" stop-color="#8e034c" stop-opacity="0.2"/></linearGradient></defs><title>标题</title><g id="图层_2" data-name="图层 2"><g id="重大活动立体化指挥安保平台-二级防护盾"><g id="标题"><polygon class="cls-1" points="1009.72 46.09 958.02 46.09 965.4 40.18 1017.11 40.18 1009.72 46.09"/><line class="cls-2" x1="2317.52" y1="38.87" x2="3838.03" y2="38.87"/><polygon class="cls-1" points="2397.47 41.83 2345.76 41.83 2353.15 35.92 2404.85 35.92 2397.47 41.83"/><polygon class="cls-1" points="2338.38 41.83 2327.3 41.83 2334.68 35.92 2345.76 35.92 2338.38 41.83"/><polygon class="cls-1" points="1344.63 46.29 1396.34 46.29 1388.95 40.38 1337.25 40.38 1344.63 46.29"/><polygon class="cls-1" points="1403.72 46.29 1414.8 46.29 1407.41 40.38 1396.34 40.38 1403.72 46.29"/><polygon class="cls-1" points="585.74 46.09 637.45 46.09 630.06 40.18 578.36 40.18 585.74 46.09"/><polygon class="cls-1" points="644.83 46.09 655.91 46.09 648.53 40.18 637.45 40.18 644.83 46.09"/><polygon class="cls-1" points="134.08 46.09 185.78 46.09 178.39 40.18 126.69 40.18 134.08 46.09"/><polygon class="cls-1" points="193.17 46.09 204.25 46.09 196.86 40.18 185.78 40.18 193.17 46.09"/><polygon class="cls-1" points="1419.96 46.29 1471.67 46.29 1464.28 40.38 1412.58 40.38 1419.96 46.29"/><polygon class="cls-1" points="1479.06 46.29 1490.13 46.29 1482.75 40.38 1471.67 40.38 1479.06 46.29"/><polygon class="cls-1" points="2777.89 41.83 2726.19 41.83 2733.58 35.92 2785.28 35.92 2777.89 41.83"/><polygon class="cls-1" points="2451.89 41.83 2400.19 41.83 2407.58 35.92 2459.28 35.92 2451.89 41.83"/><polygon class="cls-1" points="3559.89 41.83 3508.19 41.83 3515.58 35.92 3567.28 35.92 3559.89 41.83"/><polygon class="cls-1" points="2953.68 41.83 2940.02 41.83 2947.41 35.92 2961.07 35.92 2953.68 41.83"/><polygon class="cls-1" points="3275.68 41.83 3262.02 41.83 3269.41 35.92 3283.07 35.92 3275.68 41.83"/><polygon class="cls-1" points="3774.35 41.83 3760.68 41.83 3768.07 35.92 3781.74 35.92 3774.35 41.83"/><polygon class="cls-3" points="2317.39 0 2317.39 51.98 2317.05 51.32 2287.03 85.97 1497.39 85.97 1497.39 0 2317.39 0"/><rect class="cls-4" x="1497.39" width="8" height="86"/><polygon class="cls-4" points="2304.55 19.48 2311.39 19.48 2311.39 6 2298.83 6 2298.83 12.82 2304.55 12.82 2304.55 19.48"/><line class="cls-2" x1="1501.39" y1="43" y2="43"/></g></g></g></svg>