<svg xmlns="http://www.w3.org/2000/svg" viewBox="0 0 22.3 16"><defs><style>.cls-1{fill:#fff18a;}</style></defs><title>车</title><g id="图层_2" data-name="图层 2"><g id="重大活动立体化指挥安保平台-场馆"><g id="_编组_" data-name="&lt;编组&gt;"><path id="_复合路径_" data-name="&lt;复合路径&gt;" class="cls-1" d="M9,0H4.77A1.49,1.49,0,0,0,3.4,1l-1,4.6a.77.77,0,0,1-.51.51H1.19A1.16,1.16,0,0,0,0,7.32v4.25a1.16,1.16,0,0,0,1.19,1.2h.68v2A1.16,1.16,0,0,0,3.06,16H4.77A1.16,1.16,0,0,0,6,14.81v-2H16.34v2A1.16,1.16,0,0,0,17.53,16h1.7a1.17,1.17,0,0,0,1.2-1.19v-2h.68a1.16,1.16,0,0,0,1.19-1.2V7.32a1.16,1.16,0,0,0-1.19-1.19h-.68a.55.55,0,0,1-.52-.51l-1-4.6a1.29,1.29,0,0,0-1.36-1H9ZM3.91,10.89A1.53,1.53,0,1,1,5.45,9.36,1.79,1.79,0,0,1,3.91,10.89Zm0-4.25,1-4.94H17l1,4.94Zm14.3,4.25a1.53,1.53,0,1,1,1.53-1.53A1.52,1.52,0,0,1,18.21,10.89Z"/></g></g></g></svg>