<svg xmlns="http://www.w3.org/2000/svg" viewBox="0 0 340 268.83"><defs><style>.cls-1{opacity:0.4;}.cls-2,.cls-3,.cls-4{fill:#bfbed3;}.cls-2{opacity:0.55;}.cls-4{opacity:0.3;}.cls-5,.cls-6,.cls-7{fill:none;stroke:#bfbed3;stroke-miterlimit:10;}.cls-6{stroke-width:8px;stroke-dasharray:40;}.cls-7{stroke-width:2px;}</style></defs><title>防护盾未选择</title><g id="图层_2" data-name="图层 2"><g id="重大活动立体化指挥安保平台-一级防护盾"><g class="cls-1"><polygon class="cls-2" points="15.78 106.68 31.83 106.68 16.05 134.14 31.84 161.59 15.78 161.59 0 134.14 15.78 106.68"/><polygon class="cls-2" points="324.22 161.59 308.17 161.59 323.95 134.14 308.16 106.68 324.22 106.68 340 134.14 324.22 161.59"/><polygon class="cls-3" points="157.94 6.96 157.94 4.15 137.77 4.15 137.77 4.8 94.69 4.76 19.79 134.28 94.46 263.39 94.69 263.79 137.77 263.79 137.77 264.4 157.94 264.4 157.94 261.6 137.77 261.6 137.77 262.21 95.6 262.21 21.62 134.28 95.6 6.35 137.77 6.38 137.77 6.96 157.94 6.96"/><polygon class="cls-3" points="137.77 268.83 92.1 268.83 79.67 247.14 81.05 246.36 93.02 267.25 137.77 267.25 137.77 268.83"/><polygon class="cls-3" points="181.4 6.96 181.4 4.15 201.57 4.15 201.57 4.8 244.65 4.76 319.55 134.28 244.88 263.39 244.65 263.79 201.57 263.79 201.57 264.4 181.4 264.4 181.4 261.6 201.57 261.6 201.57 262.21 243.74 262.21 317.72 134.28 243.74 6.35 201.57 6.38 201.57 6.96 181.4 6.96"/><polygon class="cls-3" points="299.81 93.91 246.72 1.58 192.11 1.58 192.11 0 247.64 0 301.18 93.12 299.81 93.91"/><rect class="cls-4" x="95.48" y="10.88" width="62.18" height="11.21"/><polygon class="cls-3" points="96.45 59.34 86.68 59.34 43.41 134 86.68 208.65 96.48 208.65 53.19 134 96.45 59.34"/><polygon class="cls-3" points="243.5 59.34 253.28 59.34 296.55 134 253.28 208.65 243.47 208.65 286.77 134 243.5 59.34"/><circle class="cls-4" cx="170.29" cy="134.47" r="31.34"/><circle class="cls-5" cx="170.29" cy="134.47" r="33.19"/><circle class="cls-5" cx="170.29" cy="134.47" r="36.63"/><circle class="cls-6" cx="170.29" cy="134.47" r="51.28"/><rect class="cls-4" x="181.4" y="238.77" width="62.18" height="18.77"/><line class="cls-7" x1="172.41" y1="31.09" x2="172.41" y2="38.52"/><line class="cls-7" x1="163.42" y1="31.3" x2="164.06" y2="38.7"/><line class="cls-7" x1="154.48" y1="32.29" x2="155.76" y2="39.61"/><line class="cls-7" x1="145.66" y1="34.06" x2="147.58" y2="41.24"/><line class="cls-7" x1="137.03" y1="36.6" x2="139.56" y2="43.58"/><line class="cls-7" x1="128.65" y1="39.88" x2="131.78" y2="46.62"/><line class="cls-7" x1="120.59" y1="43.88" x2="124.29" y2="50.32"/><line class="cls-7" x1="112.9" y1="48.57" x2="117.15" y2="54.66"/><line class="cls-7" x1="105.66" y1="53.91" x2="110.42" y2="59.61"/><line class="cls-7" x1="98.9" y1="59.87" x2="104.14" y2="65.12"/><line class="cls-7" x1="92.69" y1="66.39" x2="98.37" y2="71.17"/><line class="cls-7" x1="87.07" y1="73.43" x2="93.14" y2="77.7"/><line class="cls-7" x1="82.08" y1="80.94" x2="88.5" y2="84.66"/><line class="cls-7" x1="77.76" y1="88.85" x2="84.48" y2="91.99"/><line class="cls-7" x1="74.15" y1="97.11" x2="81.12" y2="99.66"/><line class="cls-7" x1="71.27" y1="105.66" x2="78.43" y2="107.58"/><line class="cls-7" x1="69.15" y1="114.42" x2="76.44" y2="115.72"/><line class="cls-7" x1="67.79" y1="123.34" x2="75.17" y2="123.99"/><line class="cls-7" x1="67.21" y1="132.34" x2="74.62" y2="132.34"/><line class="cls-7" x1="67.42" y1="141.36" x2="74.8" y2="140.71"/><line class="cls-7" x1="68.41" y1="150.33" x2="75.71" y2="149.04"/><line class="cls-7" x1="70.18" y1="159.17" x2="77.33" y2="157.25"/><line class="cls-7" x1="72.7" y1="167.83" x2="79.67" y2="165.29"/><line class="cls-7" x1="75.97" y1="176.23" x2="82.69" y2="173.09"/><line class="cls-7" x1="79.96" y1="184.32" x2="86.38" y2="180.6"/><line class="cls-7" x1="84.64" y1="192.02" x2="90.71" y2="187.76"/><line class="cls-7" x1="89.97" y1="199.29" x2="95.64" y2="194.51"/><line class="cls-7" x1="95.91" y1="206.06" x2="101.15" y2="200.81"/><line class="cls-7" x1="102.41" y1="212.29" x2="107.17" y2="206.6"/><line class="cls-7" x1="109.43" y1="217.93" x2="113.68" y2="211.84"/><line class="cls-7" x1="116.92" y1="222.93" x2="120.62" y2="216.49"/><line class="cls-7" x1="124.81" y1="227.26" x2="127.94" y2="220.52"/><line class="cls-7" x1="133.05" y1="230.88" x2="135.58" y2="223.9"/><line class="cls-7" x1="141.57" y1="233.77" x2="143.48" y2="226.59"/><line class="cls-7" x1="150.31" y1="235.9" x2="151.59" y2="228.58"/><line class="cls-7" x1="159.2" y1="237.26" x2="159.84" y2="229.86"/><line class="cls-7" x1="168.17" y1="237.84" x2="168.17" y2="230.41"/><line class="cls-7" x1="177.16" y1="237.63" x2="176.52" y2="230.23"/><line class="cls-7" x1="186.1" y1="236.64" x2="184.82" y2="229.32"/><line class="cls-7" x1="194.92" y1="234.87" x2="193.01" y2="227.69"/><line class="cls-7" x1="203.56" y1="232.33" x2="201.02" y2="225.35"/><line class="cls-7" x1="211.93" y1="229.05" x2="208.8" y2="222.32"/><line class="cls-7" x1="220" y1="225.05" x2="216.29" y2="218.62"/><line class="cls-7" x1="227.68" y1="220.37" x2="223.43" y2="214.28"/><line class="cls-7" x1="234.93" y1="215.02" x2="230.16" y2="209.33"/><line class="cls-7" x1="241.68" y1="209.07" x2="236.44" y2="203.81"/><line class="cls-7" x1="247.89" y1="202.54" x2="242.21" y2="197.77"/><line class="cls-7" x1="253.51" y1="195.5" x2="247.44" y2="191.24"/><line class="cls-7" x1="258.5" y1="187.99" x2="252.08" y2="184.28"/><line class="cls-7" x1="262.82" y1="180.08" x2="256.1" y2="176.94"/><line class="cls-7" x1="266.43" y1="171.82" x2="259.46" y2="169.28"/><line class="cls-7" x1="269.31" y1="163.27" x2="262.15" y2="161.35"/><line class="cls-7" x1="271.44" y1="154.51" x2="264.14" y2="153.22"/><line class="cls-7" x1="272.79" y1="145.59" x2="265.41" y2="144.95"/><line class="cls-7" x1="273.37" y1="136.59" x2="265.96" y2="136.59"/><line class="cls-7" x1="273.16" y1="127.57" x2="265.78" y2="128.22"/><line class="cls-7" x1="272.17" y1="118.61" x2="264.87" y2="119.9"/><line class="cls-7" x1="270.4" y1="109.76" x2="263.25" y2="111.69"/><line class="cls-7" x1="267.88" y1="101.11" x2="260.91" y2="103.65"/><line class="cls-7" x1="264.61" y1="92.7" x2="257.89" y2="95.84"/><line class="cls-7" x1="260.62" y1="84.62" x2="254.2" y2="88.34"/><line class="cls-7" x1="255.94" y1="76.91" x2="249.87" y2="81.18"/><line class="cls-7" x1="250.61" y1="69.65" x2="244.94" y2="74.42"/><line class="cls-7" x1="244.68" y1="62.87" x2="239.44" y2="68.13"/><line class="cls-7" x1="238.17" y1="56.64" x2="233.41" y2="62.34"/><line class="cls-7" x1="231.15" y1="51.01" x2="226.9" y2="57.09"/><line class="cls-7" x1="223.66" y1="46" x2="219.96" y2="52.44"/><line class="cls-7" x1="215.77" y1="41.68" x2="212.64" y2="48.41"/><line class="cls-7" x1="207.54" y1="38.05" x2="205" y2="45.04"/><line class="cls-7" x1="199.01" y1="35.16" x2="197.1" y2="42.34"/><line class="cls-7" x1="190.28" y1="33.03" x2="188.99" y2="40.35"/><line class="cls-7" x1="181.38" y1="31.67" x2="180.74" y2="39.07"/></g></g></g></svg>