<svg xmlns="http://www.w3.org/2000/svg" viewBox="0 0 680.3 328.5"><defs><style>.cls-1{opacity:0.6;}.cls-2{fill:#590432;}.cls-3{fill:#f471c4;}</style></defs><title>场馆简介</title><g id="图层_2" data-name="图层 2"><g id="重大活动立体化指挥安保平台-一级防护盾"><g class="cls-1"><polygon class="cls-2" points="1 16.06 1 134.83 11.34 149.37 11.34 209.07 4.56 216.34 4.56 327.56 229.78 327.56 243.19 316.42 337.04 316.42 347 327.56 665.67 327.56 675.74 316.4 675.74 145.89 668.83 138 668.83 105.53 679.41 93.81 679.41 1.06 612.13 1.06 605.39 8.52 538.14 8.52 528.26 1.06 18.32 1.06 1 16.06"/><path class="cls-3" d="M680.3,94.16V0H611.68l-6.75,7.46H538.4L528.51,0H17.93L0,15.53V135.11l10.34,14.54V208.6l-6.78,7.27V328.5H230.05l13.41-11.14h93.12l10,11.14H666l10.61-11.76V145.44l-6.92-7.89V105.87Zm-5.55,52.07V315.94l-9.53,10.56H347.35l-10-11.14H242.81L229.4,326.5H5.45V216.69l6.78-7.27V149L1.89,134.44v-118L18.61,2H527.9l9.89,7.46h68L612.48,2h65.93V27.69L528.92,27,510.2,11.3H326.33a4.61,4.61,0,0,0-4.39-3.56,4.72,4.72,0,0,0-4.58,4.85,4.72,4.72,0,0,0,4.58,4.84,4.66,4.66,0,0,0,4.51-4.13H509.54L528.25,29l150.16.7V93.35l-10.58,11.72v33.27Z"/></g></g></g></svg>