<svg xmlns="http://www.w3.org/2000/svg" viewBox="0 0 50 50"><defs><style>.cls-1{fill:#fff;opacity:0.6;}</style></defs><title>行李</title><g id="图层_2" data-name="图层 2"><g id="图层_3" data-name="图层 3"><path class="cls-1" d="M25,0A25,25,0,1,0,50,25,25,25,0,0,0,25,0ZM42,42a24,24,0,0,1-17,7A24,24,0,0,1,8,42,24,24,0,0,1,1,25,24,24,0,0,1,25,1,24,24,0,0,1,49,25a23.86,23.86,0,0,1-7,17ZM31.5,11.2v1.19h-13V11.2H16V38.8h2.39V17.46H31.53V38.8h2.53V11.2Zm-12,22.23v0a.82.82,0,0,0,.84.76h2V27.26H20.25a.75.75,0,0,0-.78.76v5.41Zm7.37.78v-6.8a1.84,1.84,0,0,0-3.68,0v6.8Zm-1.77-7.76a1,1,0,0,1,.94.82H24a1.09,1.09,0,0,1,1-.82Zm2.56.81v7H29.7a.77.77,0,0,0,.79-.82V28a.78.78,0,0,0-.83-.76Z"/></g></g></svg>