<svg xmlns="http://www.w3.org/2000/svg" viewBox="0 0 50 50"><defs><style>.cls-1{fill:#fff;opacity:0.6;}</style></defs><title>人</title><g id="图层_2" data-name="图层 2"><g id="图层_3" data-name="图层 3"><path class="cls-1" d="M25,0A25,25,0,1,0,50,25,25,25,0,0,0,25,0ZM42,42a24,24,0,0,1-17,7A24,24,0,0,1,8,42,24,24,0,0,1,1,25,24,24,0,0,1,25,1,24,24,0,0,1,49,25a23.86,23.86,0,0,1-7,17ZM31.5,11.2v1.19h-13V11.2H16V38.8h2.39V17.46H31.53V38.8h2.53V11.2ZM19.85,36.94a1,1,0,0,1,0-.42,2.2,2.2,0,0,1,.36-.6,7.7,7.7,0,0,1,1.57-1.14,8,8,0,0,0,1.57-.71.76.76,0,0,0,.06-1.14,9.16,9.16,0,0,1-1-1.8s-.71-2.66.8-3.74a2.76,2.76,0,0,1,1.61-.59,3.68,3.68,0,0,1,1.46.28,2.6,2.6,0,0,1,1.23,1.34,3.94,3.94,0,0,1,.12,2.38A5.78,5.78,0,0,1,26.5,33a.74.74,0,0,0,.18,1.21,9.8,9.8,0,0,1,2.59,1.29,2.73,2.73,0,0,1,.84,1,1.39,1.39,0,0,1,.05.43Z"/></g></g></svg>