<svg xmlns="http://www.w3.org/2000/svg" viewBox="0 0 50 50"><defs><style>.cls-1{fill:#fff;opacity:0.6;}</style></defs><title>人证</title><g id="图层_2" data-name="图层 2"><g id="图层_3" data-name="图层 3"><path class="cls-1" d="M25,0A25,25,0,1,0,50,25,25,25,0,0,0,25,0ZM42,42a24,24,0,0,1-17,7A24,24,0,0,1,8,42,24,24,0,0,1,1,25,24,24,0,0,1,25,1,24,24,0,0,1,49,25a23.86,23.86,0,0,1-7,17ZM31.5,11.2v1.19h-13V11.2H16V38.8h2.39V17.46H31.53V38.8h2.53V11.2ZM21,36a1,1,0,0,1-1-1V29.54a1,1,0,0,1,1-1.06h8a1,1,0,0,1,1,1.06V35a1,1,0,0,1-1,1Zm4.37-5.45a.23.23,0,0,0,.07.18.25.25,0,0,0,.18.08H28.4a.25.25,0,0,0,.18-.08.23.23,0,0,0,.07-.18v-.07a.26.26,0,0,0-.07-.19.3.3,0,0,0-.18-.08H25.61a.3.3,0,0,0-.18.08.26.26,0,0,0-.07.19Zm0,1.65a.26.26,0,0,0,.07.19.25.25,0,0,0,.18.08H28.4a.25.25,0,0,0,.18-.08.26.26,0,0,0,.07-.19v-.07a.24.24,0,0,0-.07-.18.25.25,0,0,0-.18-.08H25.61a.25.25,0,0,0-.18.08.24.24,0,0,0-.07.18ZM23.18,30a.72.72,0,1,0,.35,1.34.72.72,0,0,0,.33-.63.71.71,0,0,0-.68-.71ZM22,32.62a.77.77,0,0,0,0,.15h2.33a.77.77,0,0,0,0-.15v-.08a1,1,0,0,0-.93-1h-.51a1,1,0,0,0-.93,1Zm-.57,1.61a.32.32,0,0,0,.07.19.25.25,0,0,0,.18.08H28.4a.25.25,0,0,0,.18-.08.26.26,0,0,0,.07-.19v-.07a.23.23,0,0,0-.07-.18.25.25,0,0,0-.18-.08H21.67a.25.25,0,0,0-.18.08.27.27,0,0,0-.07.18Z"/></g></g></svg>