<svg xmlns="http://www.w3.org/2000/svg" viewBox="0 0 50 50"><defs><style>.cls-1{fill:#fff;opacity:0.6;}</style></defs><title>人像</title><g id="图层_2" data-name="图层 2"><g id="图层_3" data-name="图层 3"><path class="cls-1" d="M25,0A25,25,0,1,0,50,25,25,25,0,0,0,25,0ZM42,42a24,24,0,0,1-17,7A24,24,0,0,1,8,42,24,24,0,0,1,1,25,24,24,0,0,1,25,1,24,24,0,0,1,49,25a23.86,23.86,0,0,1-7,17Zm-24.35-10a1.42,1.42,0,0,1,.08-.62,3.61,3.61,0,0,1,.51-.86,11.41,11.41,0,0,1,2.28-1.66,12,12,0,0,0,2.29-1,1.12,1.12,0,0,0,.08-1.66,13.79,13.79,0,0,1-1.49-2.61s-1-3.86,1.16-5.43a4,4,0,0,1,2.33-.86,5.27,5.27,0,0,1,2.13.41,3.74,3.74,0,0,1,1.78,1.95A5.66,5.66,0,0,1,28.94,23a8.42,8.42,0,0,1-1.66,3.16,1.05,1.05,0,0,0,.26,1.75,14.3,14.3,0,0,1,3.75,1.87,4.1,4.1,0,0,1,1.22,1.47,1.84,1.84,0,0,1,.07.63Zm18.09,6.44H29.34a1.06,1.06,0,1,1,0-2.12h6.37a1.06,1.06,0,0,0,1.06-1.07v-5.3a1.07,1.07,0,1,1,2.13,0v5.3a3.19,3.19,0,0,1-3.19,3.19Zm-15.92,0H14.48a3.19,3.19,0,0,1-3.18-3.19v-5.3a1.06,1.06,0,1,1,2.12,0v5.3a1.07,1.07,0,0,0,1.06,1.07h5.31a1.06,1.06,0,0,1,0,2.12ZM12.36,20.33a1.05,1.05,0,0,1-1.06-1.06V14a3.19,3.19,0,0,1,3.18-3.18h5.31a1.06,1.06,0,0,1,0,2.12H14.48A1.07,1.07,0,0,0,13.42,14v5.31a1.06,1.06,0,0,1-1.06,1.06Zm25.47,0a1.06,1.06,0,0,1-1.06-1.06V14a1.06,1.06,0,0,0-1.06-1.06H29.34a1.06,1.06,0,1,1,0-2.12h6.37A3.19,3.19,0,0,1,38.9,14v5.31a1.06,1.06,0,0,1-1.07,1.06Z"/></g></g></svg>