<svg xmlns="http://www.w3.org/2000/svg" viewBox="0 0 50 50"><defs><style>.cls-1{fill:#fff;opacity:0.6;}</style></defs><title>通道</title><g id="图层_2" data-name="图层 2"><g id="重大活动立体化指挥安保平台-三级防护盾"><path class="cls-1" d="M25,0A25,25,0,1,0,50,25,25,25,0,0,0,25,0ZM42,42a24,24,0,0,1-17,7A24,24,0,0,1,8,42,24,24,0,0,1,1,25,24,24,0,0,1,25,1,24,24,0,0,1,49,25a23.86,23.86,0,0,1-7,17Zm-28.26-4.1h-.1a1.15,1.15,0,0,1-.66-.41,1.59,1.59,0,0,1-.26-1.07l4-24.38c.15-.72.61-1.23,1.23-1.23H18a1.1,1.1,0,0,1,.66.41,1.79,1.79,0,0,1,.26,1.12l-4,24.38a1.34,1.34,0,0,1-1.23,1.18ZM24.81,18.5c-.62,0-1.08-.36-1.08-.82V12.06c0-.46.46-.82,1.08-.82s1.07.36,1.07.82v5.62c0,.46-.46.82-1.07.82Zm0,19.88a1,1,0,0,1-1.08-.87V31.17c0-.51.46-.87,1.08-.87a1,1,0,0,1,1.07.87v6.29a1,1,0,0,1-1.07.92Zm0-10a1,1,0,0,1-1.08-.87V21.17c0-.51.46-.87,1.08-.87a1,1,0,0,1,1.07.87v6.29a1,1,0,0,1-1.07.92Zm10.58,9.54a1.34,1.34,0,0,1-1.23-1.18l-4-24.33A1.28,1.28,0,0,1,31,10.88h.1a1.34,1.34,0,0,1,1.23,1.18l4,24.38a1.36,1.36,0,0,1-.26,1.07.79.79,0,0,1-.66.41Z"/></g></g></svg>