<svg xmlns="http://www.w3.org/2000/svg" viewBox="0 0 50 50"><defs><style>.cls-1{fill:#fff;opacity:0.6;}</style></defs><title>安保</title><g id="图层_2" data-name="图层 2"><g id="重大活动立体化指挥安保平台-一级防护盾"><path class="cls-1" d="M25,0A25,25,0,1,0,50,25,25,25,0,0,0,25,0ZM42,42a24,24,0,0,1-17,7A24,24,0,0,1,8,42,24,24,0,0,1,1,25,24,24,0,0,1,25,1,24,24,0,0,1,49,25a23.86,23.86,0,0,1-7,17ZM24.57,38.8a11.88,11.88,0,0,1-4.75-1.37A8.9,8.9,0,0,1,15.43,33l0-.09-.1,0a6.2,6.2,0,0,1-2.51-1.38,3.34,3.34,0,0,1-1.2-2.35,3.45,3.45,0,0,1,2.29-3.42l.13,0,.6-1.88c-.07-.07-.33-.41-.38-.48A36.05,36.05,0,0,1,24.6,22.14,36.65,36.65,0,0,1,35,23.33c-.05.08-.53.54-.53.54l.91,1.67.13,0a3.25,3.25,0,0,1,2.11,3.57h0a3.34,3.34,0,0,1-1.21,2.29,6.06,6.06,0,0,1-2.51,1.43l-.1,0,0,.09a8.87,8.87,0,0,1-4.4,4.44,11.91,11.91,0,0,1-4.76,1.36ZM17.1,31.89c1,3.87,6.17,5.54,7.66,5.54a9.66,9.66,0,0,0,4-1.26,7.17,7.17,0,0,0,3.66-4.27v0c0-.38.4-.64,1-.64a3.35,3.35,0,0,0,2.1-1.31,1.29,1.29,0,0,0,.26-1.11,2.63,2.63,0,0,0-.35-1.24l-.12-.24-.19.19a1.06,1.06,0,0,1-.69.28.92.92,0,0,1-1-.81V26a4.61,4.61,0,0,0-.17-1.41l-.08-.23-.21.12a17.23,17.23,0,0,1-8.39,2.15,19.4,19.4,0,0,1-8.39-2.18l-.28-.15v.33a2.7,2.7,0,0,1-.07.5,5.52,5.52,0,0,0-.1.84v1a.93.93,0,0,1-1,.81,1,1,0,0,1-.69-.28l-.19-.2-.13.25a2.65,2.65,0,0,0-.35,1.27c0,.67.71,1.31,1.13,1.63a3.52,3.52,0,0,0,1.55.76,1.07,1.07,0,0,1,1,.71ZM13.72,21.24a8.13,8.13,0,0,0-1.58-3,13.25,13.25,0,0,1-.74-1.13c-.24-.42-.2-.53-.19-.55s0,0,.19,0c6.3,0,8.88-2.17,10.77-3.77,1-.85,1.81-1.52,2.86-1.52s2,.72,3.2,1.63a15.26,15.26,0,0,0,10.41,3.71.42.42,0,0,1,.16,0,1.41,1.41,0,0,1-.32.47c-.22.26-.55.59-.89.93-1,1-2.26,2.27-2.39,3.29A19,19,0,0,0,33,20.77a48.46,48.46,0,0,0-7.81-.56,56.74,56.74,0,0,0-11.44,1Zm8.13-4c0,.52.48,1.08,1.45,1.66a10,10,0,0,0,1.39.7l.07,0,.08,0a11.43,11.43,0,0,0,1.39-.69c1-.58,1.46-1.14,1.46-1.66V14.9H21.85Z"/></g></g></svg>