<svg xmlns="http://www.w3.org/2000/svg" viewBox="0 0 50 50"><defs><style>.cls-1{fill:#fff;opacity:0.6;}</style></defs><title>车辆通道</title><g id="图层_2" data-name="图层 2"><g id="重大活动立体化指挥安保平台-一级防护盾"><path class="cls-1" d="M25,0A25,25,0,1,0,50,25,25,25,0,0,0,25,0ZM42,42a24,24,0,0,1-17,7A24,24,0,0,1,8,42,24,24,0,0,1,1,25,24,24,0,0,1,25,1,24,24,0,0,1,49,25a23.86,23.86,0,0,1-7,17Zm-28-4.1h-.1a1.18,1.18,0,0,1-.67-.41A1.64,1.64,0,0,1,13,36.39L17,12c.16-.72.62-1.23,1.23-1.23h.1a1.13,1.13,0,0,1,.67.41,1.84,1.84,0,0,1,.25,1.12l-4,24.38A1.36,1.36,0,0,1,14,37.87ZM25.09,18.5c-.61,0-1.07-.36-1.07-.82V12.06c0-.46.46-.82,1.07-.82s1.07.36,1.07.82v5.62c0,.46-.46.82-1.07.82Zm0,19.88A1,1,0,0,1,24,37.51V31.17a1,1,0,0,1,1.07-.87,1,1,0,0,1,1.07.87v6.29a1,1,0,0,1-1.07.92Zm10.58-.46a1.36,1.36,0,0,1-1.23-1.18l-4-24.33a1.26,1.26,0,0,1,.87-1.53h.1a1.34,1.34,0,0,1,1.22,1.18l4,24.38a1.39,1.39,0,0,1-.25,1.07.8.8,0,0,1-.67.41ZM23.81,19.43H21.13a1,1,0,0,0-.86.7l-.64,3.15a.51.51,0,0,1-.33.35h-.42a.77.77,0,0,0-.75.82v2.92a.77.77,0,0,0,.75.82h.42v1.4a.77.77,0,0,0,.75.81h1.08a.76.76,0,0,0,.75-.81v-1.4h6.54v1.4a.76.76,0,0,0,.75.81h1.07a.76.76,0,0,0,.75-.81v-1.4h.43a.77.77,0,0,0,.75-.82V24.45a.77.77,0,0,0-.75-.82H31a.35.35,0,0,1-.32-.35L30,20.13a.81.81,0,0,0-.85-.7H23.81ZM20.59,26.9a1.05,1.05,0,1,1,1-1C21.45,26.43,21,26.9,20.59,26.9Zm0-2.92.64-3.38h7.62L29.49,24Zm9,2.92a1.05,1.05,0,1,1,1-1A1,1,0,0,1,29.6,26.9Z"/></g></g></svg>