<svg xmlns="http://www.w3.org/2000/svg" viewBox="0 0 50 50"><defs><style>.cls-1{fill:#fff;opacity:0.6;}</style></defs><title>志愿者_1</title><g id="图层_2" data-name="图层 2"><g id="重大活动立体化指挥安保平台-一级防护盾"><path class="cls-1" d="M25,0A25,25,0,1,0,50,25,25,25,0,0,0,25,0ZM42,42a24,24,0,0,1-17,7A24,24,0,0,1,8,42,24,24,0,0,1,1,25,24,24,0,0,1,25,1,24,24,0,0,1,49,25a23.86,23.86,0,0,1-7,17ZM13.8,38.5a.93.93,0,0,1-.93-.93,12.06,12.06,0,0,1,7.89-11.29,8.21,8.21,0,0,1-2.71-2.63,8.11,8.11,0,1,1,6.85,3.77h-.3a10.17,10.17,0,0,0-9.86,10.16.94.94,0,0,1-.94.93ZM24.89,25.55H25a6.31,6.31,0,1,0-.42,0Zm6,4.22A3.37,3.37,0,0,1,35,27.55a4.76,4.76,0,0,1,2.89,7.23c-1.85,2.87-3.87,4.6-8.73,3.84v-.2c2.93-.15,7.49-3.46,7-6.69-.43-2.87-4.19-3.15-4.86.33h-.19c-.15-1.49-2.33-1.64-2.95-.33-1.33,2.77,2.34,4.52,3.2,5.43v.07H31c-2-.61-3.2-1.14-4.24-2.59a3.61,3.61,0,0,1,1.78-5.37c.66-.26,2-.23,2.36.5Z"/></g></g></svg>