<svg xmlns="http://www.w3.org/2000/svg" viewBox="0 0 50 50"><defs><style>.cls-1{fill:#fff;opacity:0.6;}</style></defs><title>工作人员_1</title><g id="图层_2" data-name="图层 2"><g id="重大活动立体化指挥安保平台-一级防护盾"><path class="cls-1" d="M25,0A25,25,0,1,0,50,25,25,25,0,0,0,25,0ZM42,42a24,24,0,0,1-17,7A24,24,0,0,1,8,42,24,24,0,0,1,1,25,24,24,0,0,1,25,1,24,24,0,0,1,49,25a23.86,23.86,0,0,1-7,17Zm-19-16.47c0-.67.88-1.22,2-1.22s2,.55,2,1.22-.88,1.22-2,1.22S22.92,26.18,22.92,25.5Zm9.16-9.81.06,0v-.05s-1.9-4.84-7-4.45c-1.24.1-5.42,0-7.47,4.44A13.55,13.55,0,0,1,32.08,15.69ZM17.49,30.09c-.8-8.37-.27-12.62-.16-13.41a14.33,14.33,0,0,1,15,.21l.05,0c.81,1.57,0,13.42,0,13.42,3.15,2.16,3,8.46,3,8.46H14.44C15.05,31.55,17.49,30.09,17.49,30.09ZM27.87,16.64a1.43,1.43,0,0,1,.28-.07c.26,0,.23,0,.44.15a2.47,2.47,0,0,1,.3.42,6.58,6.58,0,0,1,.24,1s.15.43.35.37,0-.48,0-.48a6.86,6.86,0,0,0-.31-1.4,1.26,1.26,0,0,0-.43-.43,1.83,1.83,0,0,0-1.4,0,6.38,6.38,0,0,1-.87.3,8.92,8.92,0,0,1-1.24.29A7.58,7.58,0,0,1,24,16.64c-.26-.05-.85-.42-1.11-.46a4.9,4.9,0,0,0-1.31-.11,1.67,1.67,0,0,0-1.18.85c-.16.36-.62,1.41-.26,1.57.15.06.31-.39.39-.53s.33-.8.53-1.06l.32-.24a1.56,1.56,0,0,1,.72-.09l.18,0c.23.11.28.16.28.17a4.47,4.47,0,0,0,.65.53,5.16,5.16,0,0,0,.77.31,4.42,4.42,0,0,0,2.13-.07A5.69,5.69,0,0,0,27.13,17ZM27.65,24a1.48,1.48,0,0,0-1-.87l-.44-.05-2.74,0a1.39,1.39,0,0,0-.63.12h0a1.52,1.52,0,0,0-.75.71l-.23.47-.22.35-.41-.61-1.16-2,1,5.36c4.62,3.62,7.63-.3,7.63-.3l.74-4.75-.85,1.37L28,24.7Z"/></g></g></svg>